<svg width="54" height="88" xmlns="http://www.w3.org/2000/svg">
 <g>
  <title>Layer 1</title>
  <g id="svg_18">
   <path fill-rule="evenodd" clip-rule="evenodd" fill="#13ad67" stroke-width="2" stroke-miterlimit="10" d="m27.08665,81.71616c-1.837,-9.0177 -5.0758,-16.5219 -8.9988,-23.477c-2.9099,-5.1591 -6.28077,-9.921 -9.39973,-14.9238c-1.04117,-1.67 -1.93971,-3.4344 -2.94017,-5.1676c-2.00046,-3.4657 -3.62239,-7.484 -3.51933,-12.6963c0.1007,-5.0927 1.5736,-9.178 3.69755,-12.5181c3.49327,-5.49373 9.34458,-9.99798 17.19568,-11.18169c6.4192,-0.96782 12.4377,0.66729 16.7057,3.16293c3.4876,2.03941 6.1884,4.76359 8.2414,7.97416c2.1428,3.3509 3.6184,7.3098 3.7422,12.4736c0.0633,2.6455 -0.3699,5.0955 -0.9802,7.1277c-0.6176,2.057 -1.6109,3.7764 -2.4947,5.6131c-1.7251,3.5852 -3.888,6.8701 -6.05851,10.157c-6.4653,9.7903 -12.53349,19.7748 -15.1911,33.456l0,0z" id="svg_2" stroke="#009139"/>
   <g id="svg_17">
    <path fill="#091038" d="m16.26698,27.34719c0,0.04336 -0.01234,0.08619 -0.04323,0.11788c0,0.01852 -0.01436,0.03718 -0.02015,0.05498l-3.13395,5.00456c-0.024,0.05531 -0.08659,0.08465 -0.08659,0.08465c-0.07262,0 -0.08619,0 -0.11019,-0.00778c-0.07382,-0.02156 -0.12363,-0.08888 -0.12363,-0.16739l0,-8.42532c0,-0.09783 0.07492,-0.17579 0.17932,-0.17579l3.15989,0c0.09773,0 0.17853,0.07806 0.17853,0.17579l0,3.33842z" id="svg_9"/>
    <path fill="#091038" d="m8.63201,23.05686c-0.06069,0 -0.12367,-0.03318 -0.14948,-0.08578c-0.03483,-0.05945 -0.02899,-0.12982 0,-0.18583l1.93541,-3.10305c0.03178,-0.05023 0.08659,-0.08041 0.15466,-0.08041l7.65314,0l0.04862,0l-0.0294,0.05563l-0.01923,0.03056l-1.90393,3.36889l-7.68978,0l-0.00001,-0.00001z" id="svg_10"/>
    <path fill="#091038" d="m19.5246,19.60178l9.37793,0c0.06604,0 0.12292,0.03715 0.15223,0.08964c0.03748,0.05841 0.03748,0.12758 0,0.18206l-1.9328,3.10002c-0.03748,0.05287 -0.09428,0.08346 -0.15465,0.08346l-9.46975,0l2.02704,-3.45518z" id="svg_11"/>
    <path fill="#091038" d="m19.4995,32.60918c0,0 -0.03749,0 -0.04906,-0.00778c-0.0812,-0.02157 -0.12363,-0.08889 -0.12363,-0.16739l0,-8.42523c0,-0.09783 0.07421,-0.17579 0.1727,-0.17579l3.15993,0c0.09773,0 0.17853,0.07806 0.17853,0.17579l0,3.33842c0,0.04336 -0.02007,0.08619 -0.03749,0.11788c-0.00575,0.01852 -0.01741,0.03718 -0.0259,0.05498l-3.12626,5.00456c-0.03169,0.05521 -0.09388,0.08456 -0.14882,0.08456z" id="svg_12"/>
    <path fill="#091038" d="m30.55249,29.496l-1.93514,3.1035c-0.03708,0.0487 -0.09203,0.0823 -0.14886,0.0823l-7.45981,0c-0.06917,0 -0.12372,-0.03713 -0.16159,-0.09193c-0.0313,-0.04911 -0.0313,-0.12024 0,-0.17663l1.84112,-3.0996c0.03139,-0.0568 0.08619,-0.0923 0.14958,-0.0923l7.56575,0c0.06259,0 0.12368,0.03943 0.14877,0.09428c0.03767,0.05675 0.03767,0.12359 0.00018,0.18039l0,-0.00001z" id="svg_13"/>
    <path fill="#091038" d="m33.92645,32.52067c0,0.07882 -0.05489,0.14379 -0.12407,0.167c-0.01742,0.00729 -0.03709,0.00729 -0.05494,0.00729c0,0 -0.11134,-0.0247 -0.14069,-0.06806l-5.40368,-8.95785c-0.03717,-0.05601 -0.04283,-0.1353 -0.00539,-0.20094l1.88377,-3.03775c0.03169,-0.05601 0.0865,-0.08385 0.14374,-0.08651c0.06073,0 0.11713,0.02434 0.15258,0.06758l3.51129,5.39725c0.02008,0.03593 0.03749,0.06767 0.03749,0.10825l0,6.60372l-0.00009,0l-0.00001,0.00002z" id="svg_14"/>
    <path fill="#091038" d="m39.67535,32.52067c0,0.07882 -0.04913,0.14379 -0.12368,0.167c-0.01202,0.00729 -0.03553,0.00729 -0.05493,0.00729c0,0 -0.10481,-0.0247 -0.13606,-0.06806l-5.40293,-8.95785c-0.04336,-0.05601 -0.04871,-0.1353 -0.01167,-0.20094l1.89182,-3.03775c0.02975,-0.05601 0.08071,-0.08385 0.14104,-0.08651c0.05561,0 0.11829,0.02434 0.14918,0.06758l3.5116,5.39725c0.02357,0.03593 0.03554,0.06767 0.03554,0.10825l0,6.60372l0.0001,0l-0.00001,0.00002z" id="svg_15"/>
    <path fill="#091038" d="m44.16354,27.45817l-3.16373,5.06644c-0.03759,0.05531 -0.09398,0.08465 -0.14959,0.08465c-0.0248,0 -0.03709,0 -0.04862,-0.00778c-0.08009,-0.02156 -0.1372,-0.08888 -0.1372,-0.16884l0,-12.65688c0,-0.09356 0.08809,-0.17397 0.18581,-0.17397l3.15866,0c0.09977,0 0.18056,0.08041 0.18056,0.17397l0,7.59044c0,0.03395 -0.01427,0.06719 -0.02591,0.09198l0,-0.00001z" id="svg_16"/>
   </g>
  </g>
 </g>
</svg>